<svg id="Capa_1" data-name="Capa 1" xmlns="http://www.w3.org/2000/svg" viewBox="0 0 188.25 223.13"><defs><style>.cls-1{fill:#eba600;}.cls-2{fill:#080c53;}</style></defs><title>appicon</title><path class="cls-1" d="M123.56,41.9S105,94.59,55.9,97.65-20,178.25,18,209.39s152.75,11,168.08-77.8S131.88-7.3,123.56,41.9Z"/><path class="cls-2" d="M93.71,64.21c-1.06-.34-.87-1.93-2.32-2-.85,3.34.19,6.7.66,10.08.56,4,1.52,7.89,4,11.38,1.53,2.18,1.16,5,.8,7.72-.61,4.7,1.68,9.29,1.13,13.74-3.36-8.35-1.39-18.25-6.81-26.58,0,10.93,0,21.72,0,32.5a75.38,75.38,0,0,1-.63,11.44c-.29,2-4.92,5.41-7.76,5.53-3.51.15-7,1.14-10.81.54.86,2.19,3,2.51,4.1,3.86,4.41,5.39,9.62,10.31,13,16.29,4.45,7.9,8.88,16,11.47,24.82a180,180,0,0,0,8.59,24.18,1.62,1.62,0,0,1,.18.9c-.11.65,1.5,1.48-.14,1.93-1.21.33-1.34-.91-1.55-1.53-1.39-3.93-2.52-8-4-11.87-3.26-8.88-5.81-18-9.92-26.59-4.62-9.65-10.84-18.14-17.82-26.12-3.58-4.1-7.92-5.82-13.76-6-9.58-.31-19.27-1.27-28.41-4.77-5.65-2.17-12.47-8.44-11.36-16,.81-5.44-.57-9.66-5.61-12.48a9.93,9.93,0,0,1-3.12-3.4c-1-1.55-3.28-3.31-2-4.94,1.61-2.08,3.54-5,7.54-2.94-1.07-3-3-4.84-4.5-6.81s-2.19-4.36-3.93-6.17a2.16,2.16,0,0,1,.35-3.1c1.68-1.06,3.51-2.37,5.69-1.28s4.45,2.41,6.69,3.63c.34-2.08-.26-3.11-2.4-4.23a17.69,17.69,0,0,1-8-9.32c-.55-1.35-.61-3.54.69-4.38,1.72-1.11,4-.81,6-.18,1.58.51,3.47.94,4.12,3.13.4-3.88.44-7.62.94-11.34,1.18-8.59.88-17.41,4.42-25.6a10,10,0,0,1,5.46-5.63C42.32,9.25,50.3,8.23,58.51,7.9c6.67-.27,13.23.82,19.79,1.5,4.27.45,7,4.06,8.44,8.15A56.68,56.68,0,0,1,90,34.72c.11,2.66.69,5.31.55,8a1.79,1.79,0,0,0,1,1.7c3.29,2.41,4.74,6.15,6.86,9.47,2.86,4.46,5,9.48,9.74,12.77,3.51,2.47,5.31,6.72,7.83,10.19,7.63,10.48,10.89,22.68,14.14,35,4.11,15.6,7.1,31.7,15,46,4.44,8.06,8.67,16.23,13.09,24.29.42.76.95,1.34-.08,2.28a38.69,38.69,0,0,1-3-5.2c-3.51-8.87-9.62-16.34-13.46-25a176.62,176.62,0,0,1-8.42-24.87c-2.57-9.32-4.51-18.82-7.24-28.09A79.5,79.5,0,0,0,109.6,71.23c-4.27-4.92-8.91-9.52-12.07-15.3-1.32-2.4-2.61-4.82-3.85-7.26-.3-.59-.6-1.21-1.27-1.17-.88,0-.59.94-.73,1.47-1.18,4.54-.41,8.88,1.37,13.11.24.56.61,1.06.87,1.61C94,63.79,93.8,64,93.71,64.21ZM88.52,40.54c.65-3.39,0-6.79-.6-10.12-.67-4.1-1-8.37-2.64-12.2C83.79,14.81,81.69,11.8,77.5,11a88.12,88.12,0,0,0-27.34-1c-4.31.56-9.15.47-12.88,3.37-2,1.58-4.93,2.07-6.24,4.34a22.28,22.28,0,0,0-2.47,6.55c-2.13,10-2.15,20.18-3.06,30.29C25,60.26,25.59,66,25,71.67c-.73,6.68,0,13.45-.63,20.2-.54,6-.14,12.08-.12,18.12a9.59,9.59,0,0,0,2.85,6.9c4.31,4.48,9.59,6.59,15.63,7.66,7.27,1.3,14.61,2.85,21.88,2.52,3-.13,5.77.5,8.63.31A89,89,0,0,0,83.87,126c2.74-.53,5.4-4.32,5.4-7.13,0-9.36.08-18.73,0-28.09C89.08,74.07,89.88,57.32,88.52,40.54ZM23.37,74.1c0-.68.65-1.65,0-2-2.69-1.42-4.73-4-7.81-4.65-2.16-.47-3.39,1.46-2.64,3.62,1.17,3.35,3.53,5.92,5.47,8.77,1,1.44,3.53,2.13,2.36,4.75-.19.43.65.91,1.34.89.94,0,.85-.71.87-1.31C23,80.81,22.71,77.44,23.37,74.1Zm-.33,17c-.46-1.27.77-3.33-.63-4.15-1.85-1.09-3.81-2.42-6.25-2.1s-3.52,2.68-2,4.52A53.49,53.49,0,0,0,20,95.79c.61.54,1,2,2.32,1.55,1.65-.52.14-1.73.46-2.63A14,14,0,0,0,23,91.14Zm.19-25.47c.36-1.93.68-3.51,1-5.1.69-3.87-1.9-5.19-4.74-6.81-1.38-.79-2.6-1-3.57-.48A2.89,2.89,0,0,0,15,56.9,17.91,17.91,0,0,0,23.23,65.67Z"/><path class="cls-2" d="M68,104.87c-3.44-.56-6.76.88-10.18.67-7.67-.48-15.34-.81-23-.62-1.72,0-1.94-.42-1.91-2.27C33.07,89.86,32,77.11,31,64.39a143.77,143.77,0,0,1,1.34-31.11c.32-2.33.17-4.68.58-7,.52-3,3.77-4.58,3.42-7.85-.07-.58.85-.43,1.3-.4,9.27.79,18.38-1.6,27.64-1.4,3.25.07,6.58-.22,9.82.07,4.55.4,9.18,6.8,9.2,12.31,0,11.2,1.53,22.32,1.38,33.53-.07,4.65.88,9.39.4,14-.73,7,.31,13.94.37,20.9,0,2.91-2.59,5.39-5.5,5.68C76.58,103.52,72.53,105.94,68,104.87ZM34.23,91.45c0,3.54,0,6.35,0,9.17,0,1.25.16,2.51,1.72,2.36,2.13-.22,4.07.77,6.13.67,6.81-.33,13.62.81,20.43,0,4-.47,8.11.39,12.18-.55,2.22-.51,3.83-2.44,6-2.47,3.35-.06,3.57-2.09,3.61-4.54.13-6.48-.21-13-.09-19.45.15-8.75-.24-17.51-.56-26.26-.29-7.72-.68-15.44-1.28-23.14-.38-4.85-5.62-9.12-10.42-9.34-9.45-.42-18.79,1.26-28.21,1.35-1.88,0-4.49,0-5.47,1.14a13,13,0,0,0-3.5,6.64c-.33,2.36-.27,4.72-.59,7.06A148.73,148.73,0,0,0,32.79,64.9C33.45,74,34.56,83,34.23,91.45Z"/><path class="cls-2" d="M60.25,109.77s0,.06,0,.08c-2.7-.76-5.46-1.83-7.35,1.13-1.5,2.35.23,7,3.2,10.23,1.36,1.48,2.56.16,3.24-.2,3.28-1.74,4-5.6,2.29-10.44A5.54,5.54,0,0,1,60.25,109.77Zm-2.76,10c-.75.33-4-5.4-3.78-6.82.27-1.94,1.72-2,3.26-1.78,2.52-.42,4.05.92,4,3.25A5.93,5.93,0,0,1,57.49,119.81Z"/></svg>