<svg id="Capa_1" data-name="Capa 1" xmlns="http://www.w3.org/2000/svg" viewBox="0 0 318.43 290.93"><defs><style>.cls-1{fill:#eea900;}.cls-2{fill:#080c53;}</style></defs><title>closing-img</title><path class="cls-1" d="M235,24.82s-46,75.46-123,64.05-144,99.81-95.45,160.51,232.82,67.29,285.75-65.19S264-48.61,235,24.82Z"/><path class="cls-2" d="M242.23,202.8c1.46,1.51.1,4.14-.63,6.09-2.19,5.79-6.17,8-12.77,7.5-3.15-.25-7.49,2.73-8.57,5.73a26.36,26.36,0,0,0-.75,2.59l-1.21-.29c.95-3.85,1.43-9.43.51-10.57-3.75-4.7-7.74-9.5-10.39-14.64-2.38-4.64-6.95-7.31-8.51-13a53.93,53.93,0,0,0-8.24-16.79c-1.85-2.58-4.84-4.2-5.95-7.17a15.68,15.68,0,0,0-4.58-6.6c-2.51-2.17-3.59-3.19-3.29-4.44.21-.93,1.19-2,2.91-3.73s.81-2.58-.51-3.46c-4.95-3.27-10.71-3.73-16.26-3.43-6,.31-10.2,5-10.8,10.81,7.37-1.86,14.74.12,22.08-1.06-4.37,1.91-8.72,3.07-13.37,1.92-2.65-.66-5.25.53-7.78,1.06-3.39.7-3.29,1.07-3.17-1.68,0-.37-.42-.78-.37-1.14.26-2.25.12-6.2,1-6.44,4.77-1.33,8.21-5.72,13.68-5.43,4.92.26,9.81,1.07,14.85.2l.2,0,.27,1.65a.8.8,0,0,0-.68.63c-.15,1.34,1.27,1.28,1.92,1.75,2.55,1.83,3.22,3.86.74,6-2.18,1.9-1.52,3.22.05,5.06a23.32,23.32,0,0,0,17.52,8.77c6.52.42,10.83,6,13.27,12.2s2.32,6.1,8.82,5.25c3.76-.48,5.93,2.09,7.16,5,1.32,3.16,2.08,5.81,6.66,4.67,2.2-.54,3.59,1.69,3.65,4.37C239.76,197.22,239.73,200.2,242.23,202.8Zm-3.62-2.71c.07-2.84-1.66-4.38-.78-6.41.48-1.14-.23-2-1.5-1.75-5.33,1-7.43-2.46-9.29-6.43-1.11-2.37-2.28-3.85-5.66-3.06-5.2,1.22-7.37-.63-9.58-5.58-3.42-7.69-8.16-13.74-17.87-12.87-1.17.11-2.4-.36-4.47-.7,5.94,5.51,8.2,12.24,11.39,18.46,2.36,4.61,4.07,9.66,10.38,11.12,3.39.77,6.61.27,9.87.72,1.48.21,3.19-.63,4.4.72C228.91,198.14,234,197.55,238.61,200.09Zm-.71,11.35c4-4.85,3.45-8.78-2.45-10.55-2.23-.67-4.44-3.17-7.11-.82-.47.42-.91.08-1.31-.46-2.6-3.61-7.05-3.12-10.59-3.89-2.27-.5-4.67-.8-7.73-1.16,3,4.46,5.93,8.94,9,13.36,1.37,2,3.31,3.77,3.34,6.33,0,2.95,2.37,2.59,3.39,1.91a5.13,5.13,0,0,1,3.77-.78C231.88,215.59,235.19,214.68,237.9,211.44Z"/><path class="cls-2" d="M232.64,127.66c3.25,1.22,6.13,5.76,5.14,8.77-1.1,3.37-4.09,3.23-7,3.33-5.34.18-10.46-1.39-15.7-1.72-4.41-.28-8.91.41-13.31.84-6.81.66-13.6,1.22-20.42,1.55a6.37,6.37,0,0,0-.75,0l-.27-1.65c7-1.2,14.13-2,21.23-2.47,5.48-.39,10.89-1.75,16.54-.17a56.38,56.38,0,0,0,13.44,1.54c1.4,0,3.88.08,4-3,.13-2.76-1.2-4.74-3.23-4.92-2.48-.23-4.33-1.62-6.6-2.14-9.36-2.12-18.67-4.47-27.95-6.91-12.15-3.19-21.67-10.77-30.85-18.86-5-4.42-9.64-9.43-16.78-10.4a6.79,6.79,0,0,1-2-.65A21.07,21.07,0,0,0,136,89.21c-5.43.82-10.93,0-16.4,2C114.64,93,109.24,92.82,105,97c-.13.12-.25.25-.37.38l-.94-1c1.32-1.26,2.67-2.5,4.06-3.7,3.51-3,8-3.24,12.07-4.45,9-2.65,14.45-8.39,17.83-17.15,4.13-10.69-1.6-18.35-6.81-26.18a45.21,45.21,0,0,0-8.9-10.32c-1-.8-2.3-2.57-1.51-3.84.94-1.5,2.83-2,4.82-1.59,13.37,2.7,21,11.86,26.7,23.37,2.11,4.27,5.09,8,6,13,1.49,8.3,2.28,16.46.32,25.11-.13-.14-.26-.27-.37-.41-2.16-2.61-.22-5-.29-7.33-.27-9.54-1.57-18.49-6.08-27.38a57.59,57.59,0,0,0-17.45-21c-3-2.23-7-2.24-11.38-3.38,3.07,5.69,7.61,8.75,10.33,13.23,3.05,5,6.62,9.81,8.11,15.63,1.81,7-3.56,24.3-12.58,25.83-.1,0-.13.48-.26,1,5.37-.57,10.73-1.12,15.86.43a103.08,103.08,0,0,1,11.15,3.66,27.94,27.94,0,0,1,7.92,5,79.49,79.49,0,0,0,10.21,8.42,85.75,85.75,0,0,1,9.26,7.37c4.81,4.14,11.31,4.73,17.12,6.72C210.56,122.09,222,123.67,232.64,127.66Z"/><path class="cls-2" d="M221.66,230.46c4.46-.11,6.37,2.72,6.33,6.16-.05,3.65-.82,7.66-5,9.58-1.24.57-2.25,1.73-3.52,2.15-3.14,1-5.86,2.51-9.69.38-5.18-2.89-11.42-1.19-16.75.1a122.84,122.84,0,0,1-23.72,3.83,280,280,0,0,0-31.53,3.52c-4.78.74-9.25-.84-13.8-1.29-5.72-.56-11.24-3.06-16.87-4.66a4.05,4.05,0,0,1-2.22-1c-5.21-5.8-11.92-9.5-18.46-13.54-9-5.57-18-11.67-22.94-21.32-6.11-11.84-14.65-23-13.81-37.4A45.47,45.47,0,0,1,53.4,161.4c3.62-8.14,6.33-16.92,12.21-23.88,4.14-4.9,8.88-9.29,13.09-14.13,2.51-2.88,5-5.72,7.61-8.55,5.69-6.27,11.23-12.66,17.36-18.5l.94,1c-1.8,1.92-2.8,4.26-4.72,6-8.31,7.35-14.7,16.46-22.51,24.28a87.44,87.44,0,0,0-18.6,27.57c-3.2,7.43-5.86,14.85-6.47,22.82-.72,9.34,3.94,17.24,8,25.6,2.1-5.58,6.42-9.3,9.66-13.82a79.39,79.39,0,0,1,6.65-8.12l.74.72a2.66,2.66,0,0,0-.38.53c-3.17,5.9-7.88,10.63-11.7,16-2,2.87-4.37,6-2.32,10.27a46.63,46.63,0,0,0,12,15.71,105,105,0,0,0,24.66,15.2c-2.94-3.91-2.87-7.88-2.67-11.88.35-7.2,8-16.86,14.28-18,.22,0,.6-.13.64-.05.48.88.19,3.27,2.14,1.24a3.19,3.19,0,0,0,.69-1.13l1.27.05c-1.73,3.68-1.27,6.62,3.94,7.82,1.25.29,1.2,1.92,2.18,2.37s1.3,1.28.8,1.95c-.65.85-1.54-.09-2-.46-1.32-1-2.4-2.46-4.07-2.82-2.7-.58-4.66-1.67-4.69-4.78,0-1.47-1.11-1.74-2-1.16-2.51,1.64-5.47,2.6-7.22,5.36-6.08,9.61-4.33,19.16,2.17,27.35a8.72,8.72,0,0,0,4.18,2.47c5.12,1.53,10.34,2.71,15.46,4.24a42.85,42.85,0,0,0,21.35.52c7.82-1.68,15.72-2.23,23.55-2.79,10.53-.76,20.73-3,31-4.86,2.82-.51,5.57-.91,8.09.59,4,2.36,7.71,2.07,11.39-.54.9-.64,1.86-1.2,2.71-1.89,3.88-3.18,4.53-8.44,1-10.18a38.69,38.69,0,0,0-4.62-1.93l.49-1.49A5.33,5.33,0,0,0,221.66,230.46Z"/><path class="cls-2" d="M219.71,230.07l-.49,1.49a21.52,21.52,0,0,0-3.82-.92c-8.72-1.23-17.45-2.59-26.06-4.44s-17.16-4.35-26.2-6.69c.33,1.8.3,3.12.82,4.17,2.43,5,1.11,9-2.78,12.5-2,1.84-3.88,3.94-6,5.61-3.33,2.57-11.59,4-13.32,1.25-3-4.84-7-5.37-11.9-3-3.21,1.53-5.95.47-7.58-2.66-.66-1.28-3-3.07-.91-4.18,2.32-1.28,1.09,2.08,2.27,2.77.47.27.77.82,1.18,1.2,3,2.76,6.07.41,9-.07,2.26-.37,4.32-1.08,6.19.87,3,3.12,6.14,4.32,10.77,3,8.08-2.28,12.63-9.28,10.67-17.22-.63-2.56-2-5.7.83-8.07,3.95-3.27,4.31-7.59.63-11.3a94.36,94.36,0,0,0-8.09-7.26c-4.47-3.58-2.17-15.9,4.33-16.45-6,5.61-6.21,12.78.93,18.48,2.64,2.11,6.56,3.54,6.88,7.89.14,2,.87,4.14.61,6.11s-2.87,2.62-4.18,4.5c9,.9,16.81,4.82,25.25,6.23.45-1.69-1.38-2.58-.68-4.34,2.83,2.38,5.18,5.36,8.86,6.06,5.13,1,10.3,1.76,15.48,2.53,1.42.22,3.22.6,4.28,0,.59-.35,1.16-1.82,1.63-3.69l1.21.29a32.19,32.19,0,0,1-.92,3.29C218.21,229.07,218.87,229.71,219.71,230.07Z"/><path class="cls-2" d="M214.87,215c.55,3.36-3.14,1.69-4.77,2.43s-6.08-3.45-5.45-5.15c1.23-3.36,4.88-1.37,6.74-2.7C216.05,209.45,214.59,213.33,214.87,215Z"/><path class="cls-2" d="M173.16,199.59c2.6,2.14,3.32-1.76,5.41-1.66-.06,3.87-2.36,4.44-5.4,4-.89-.11-1.06-.68-1-1.44S172.8,199.28,173.16,199.59Z"/><path class="cls-2" d="M136.54,159.33c1,2.34.31,4.5-1.8,6.24-2.4,2-4.36,5.12-4.51,7.65-.55,9.24-8.21,11.64-14,15.6-2.55,1.74-6.39,3.24-6.21,5.91.25,3.61.84,8.14,5.29,10.05,2.06.88,2.52,2.25,1.38,4.27-.24.42-.46.84-.65,1.25l-1.27-.05c.43-1.2.26-2.63-.58-3-4.21-2-4.12-6.25-5.87-9.53s-.82-5.67,2.29-7.53c3.31-2,6.65-3.93,9.76-6.2,2.74-2,6.56-3.34,6.71-7.54.15-4,2.31-7,4.55-10a15.47,15.47,0,0,0,3-5.43,22.77,22.77,0,0,0-7.42-1.17c-8-.4-15.86.73-23,4.22-8.34,4.1-16.38,9-22.72,16-1.15,1.29-3,1.22-4.06,2.28l-.74-.72c1.35-1.44,2.78-2.83,4.29-4.2A83.16,83.16,0,0,1,94.67,167c4.8-2.78,9.38-6,15.07-7.37a57,57,0,0,1,21.68-1.47C133.16,158.42,135.55,156.87,136.54,159.33Z"/><path class="cls-2" d="M134.56,161a15.47,15.47,0,0,1-3,5.43c-2.24,3-4.4,5.95-4.55,10-.15,4.2-4,5.54-6.71,7.54-3.11,2.27-6.45,4.23-9.76,6.2-3.11,1.86-4,4.25-2.29,7.53s1.66,7.56,5.87,9.53c.84.39,1,1.82.58,3a3.19,3.19,0,0,1-.69,1.13c-2,2-1.66-.36-2.14-1.24,0-.08-.42,0-.64.05C105,211.33,97.34,221,97,228.19c-.2,4-.27,8,2.67,11.88A105,105,0,0,1,75,224.87a46.63,46.63,0,0,1-12-15.71c-2.05-4.25.28-7.4,2.32-10.27,3.82-5.38,8.53-10.11,11.7-16a2.66,2.66,0,0,1,.38-.53c1-1.06,2.91-1,4.06-2.28,6.34-7,14.38-11.89,22.72-16,7.11-3.49,15-4.62,23-4.22A22.77,22.77,0,0,1,134.56,161Z"/></svg>