<svg id="Capa_1" data-name="Capa 1" xmlns="http://www.w3.org/2000/svg" viewBox="0 0 190.76 203.24"><defs><style>.cls-1{fill:#eba600;}.cls-2{fill:#010453;}</style></defs><title>vest-icon</title><path class="cls-1" d="M125.21,19.6S106.43,73,56.65,76.08-20.28,157.76,18.2,189.32,173,200.51,188.53,110.48,133.64-30.26,125.21,19.6Z"/><path class="cls-2" d="M31.74,96.87a30.7,30.7,0,0,1,.91-8.32c.85-3.16,0-6.38.25-9.56a15.18,15.18,0,0,0-3.16-10.72,3.71,3.71,0,0,1-.12-4,83.15,83.15,0,0,1,6.45-12.69c-.89-1-1.62,1-2.89-.59,3.63-.08,6.71-1.87,10.07-.46a63.61,63.61,0,0,0,10.86,3.71c3.43.73,7.22.54,10.86.78,4.57.31,9.14-.29,13.7-.32,4.27,0,8.46-.76,12.69-1,5.38-.32,10.48-2.29,15.26-4.86a24.65,24.65,0,0,1,9-2.61,3.19,3.19,0,0,1,2.08.56A44.51,44.51,0,0,0,126,50.7c3.45,1.06,5,3.66,5.61,6.89.09.46.82,1.83-.85,1.87-.71,0-.39.75-.42,1.21-.31,5,1.29,9.56,2.61,14.21a93.28,93.28,0,0,0,4.86,12.9c.55,1.21,2.39,2,1.31,3.8a4,4,0,0,0,1,.51c2.69.59,3.4,2.39,3.88,5,.52,2.85,2,5.5,3.08,8.25,3.26,8.56,6.49,17.14,9.79,25.69a49.46,49.46,0,0,0,2.38,4.85c1,2,.93,3.75-1.05,5.24-6.57,4.94-13.46,9.2-21.8,10.45a36.24,36.24,0,0,1-4.82.66c-3.63,0-6.19,2.7-9.51,3.59-5.47,1.47-10.53,4.43-16.1,5.45-8.12,1.48-16.21,3.4-24.62,2.93-5.83-.33-11.7.18-17.55.19-5.67,0-11-.25-16.08-2.8a1.9,1.9,0,0,0-1.18-.09c-4.39,1-8.76-.21-13.11,0-3.25.14-6.43-.17-9.63-.34-3.81-.21-7.22-1.06-9.58-4.85-1.7-2.73-1.56-5.25-.88-7.89,1-4,2.35-8,3.71-11.91,1.74-5,3.54-10.08,5.5-15A60.27,60.27,0,0,0,26.3,109c.55-3.48,2.82-6.13,4-9.29.37-1-.12-2.56,1.49-3,.09,1.74-1.2,3.17-1.19,5.23,2.68-2.93,5.13-5.5,6.38-9.18a23.13,23.13,0,0,0,.79-13.91C37,76,36.72,72.37,33,71.25a34.93,34.93,0,0,1,.89,14.41C33.51,89.4,33.31,93.3,31.74,96.87Zm8-16.7a16.49,16.49,0,0,1,.24,7.2c-1.26,5.42-2.8,10.89-7.46,14.73a14.73,14.73,0,0,0-4.9,7.89,86.71,86.71,0,0,1-4.26,12.52,185.54,185.54,0,0,0-8.24,25.55c-.41,1.54-.92,3.21-.28,5,1.52,4.13,4.91,5.22,8.77,5.85,5.86,1,11.78.9,17.67,1.18a13.73,13.73,0,0,0,9.55-3c3.31-2.94,7-5.49,10.09-8.67,1.52-1.54,2.74-3.24,4.12-4.84A36.72,36.72,0,0,0,73,129.42a169.51,169.51,0,0,0,5.63-29.48c.29-3.53,1.81-7,.2-10.62-1.88-4.17-2.2-9-4.61-12.87C69,68.08,63.2,60.23,54.05,55.62a9.37,9.37,0,0,0-3.32-1.11,48.2,48.2,0,0,1-9.31-2c-1.33-.43-2.47,0-3.63-.21-2-.41-1.3,1.39-1.87,2.12-1.91,2.43-2.65,5.48-4.16,8.15s-.65,5.31,2.3,6.86A8.76,8.76,0,0,1,36.9,71.4C39,74,38.69,77.28,39.75,80.17Zm94.48,69.61c7.2-.71,15.38-4.38,19.72-7s4.66-3.64,2.91-7.9c-2.73-6.63-6-13-8.08-19.94a33.49,33.49,0,0,0-1.38-4.1c-2-4.59-4.67-9-5.25-14.11-.16-1.38-1.22-1.88-2.54-2.5-2.47-1.16-5.72-1.5-6.88-4.57a20.21,20.21,0,0,0-2.89-4.87,19.91,19.91,0,0,1-3.35-8.68c-1-5.94.51-11.57,2.83-17,.76-1.76.78-3.15-.55-4.54-3.55-3.72-8.58-4.49-13-6.57-.42-.19-.6.1-.85.26-2.6,1.68-5.42,3.24-6.61,6.26A24.74,24.74,0,0,1,106.5,58c-2.4,4.11-5.15,8-6.92,12.48-3.94,10-3.85,20.45-3.08,30.83.58,7.72,1.58,15.5,4.2,22.89,3.67,10.34,10.07,18.48,20.22,23C125.19,149.19,129.66,151.56,134.23,149.78ZM114.09,157c-3.36.35-6.77.47-10.07,1.47,6.71-2.32,14.24-2.07,20.2-6.33a41.26,41.26,0,0,0-8.08-2.63c-3.69-.93-6.59-3.27-9.07-6.18-2.73-3.19-5.93-6.06-7.54-10a63.64,63.64,0,0,1-4-16.64,5.33,5.33,0,0,0-.75-3c-3.65,3.31-13.37,6.2-16,3.38-.85,3.59-2.6,6.78-3.35,10.36A33.19,33.19,0,0,1,72.62,136a49.89,49.89,0,0,1-6.74,10.19c-4.31,4.8-8.37,10-14.59,12.69a12.25,12.25,0,0,0-2.08,1.54c4.45.6,8.21,3.1,12.64,2.44a21.68,21.68,0,0,1,4.19-.19c3.14.13,6.28-.12,9.42-.07,5.05.09,10.1.41,15.14-.32,3.76-.55,7.58-.75,11.3-1.48C106.06,160,110.24,159.07,114.09,157ZM58.21,56.11c.77,2.3,3.1,2,4.4,3.38,1.75,1.81,3.67,3.43,5.32,5.38,4.14,4.89,8.7,9.44,9.75,16.19a4,4,0,0,0,1.47,2.51,5,5,0,0,1,1.91,3.89c.21,3.64.48,7.29.43,10.93a84.38,84.38,0,0,1-.77,8.83c-.08.68-1.1,1.41-.43,2s1.57-.14,2.34-.17c2.77-.12,5.71-1.29,8.25.76,1.3,1,1.86-.7,2.93-.6s.48-.8.44-1.21c-.27-2.46-.72-4.94-.87-7.36-.18-2.86,0-5.8,0-8.71A58.21,58.21,0,0,1,96.8,72.44c1-2.76,1.56-6,3.38-8.06,3.27-3.71,5-8.45,8.6-11.85.39-.37,1.09-.88.53-1.61A119.54,119.54,0,0,1,58.21,56.11ZM129,65.21c-3.2,8.65,1.2,20.48,9,26.45a51.87,51.87,0,0,1-5.54-13C131.41,74.23,129.36,70,129,65.21ZM81.46,117.08c1.06-.16,2.13-.32,3.19-.46.62-.09,1.32-.26.94-1-.56-1.16-.24-1.67,1-1.8.62-.07.89-.37.73-1-.11-.44,0-1-.84-.76-.49.13-.83-.39-.91-.93-.34-2.14-1.83-.91-2.7-.75a1.46,1.46,0,0,0-1.12,2.25C82.76,114.17,82.33,115.4,81.46,117.08Zm8.86-4.46a12.17,12.17,0,0,0-.25-1.64c-.4-1.38-1.49-1.3-2.4-.81-1.57.83.38.84.38,1.29,0,1,1,2.17-.2,3.11-.38.29-1.45,0-1,.92s1.11.75,1.9.29C90.05,115,91.08,114.19,90.32,112.62Z"/></svg>